<svg xmlns="http://www.w3.org/2000/svg" viewBox="0 0 200 200">
  <path d="M100 12 L168 38 L168 100 C168 140 138 168 100 184 C62 168 32 140 32 100 L32 38 Z" fill="#14532d"/>
  <path d="M100 26 L154 48 L154 100 C154 132 128 156 100 170 C72 156 46 132 46 100 L46 48 Z" fill="#16a34a"/>
  <path d="M100 40 L140 58 L140 100 C140 124 118 144 100 156 C82 144 60 124 60 100 L60 58 Z" fill="#4ade80"/>
  <text x="100" y="120" text-anchor="middle" font-family="-apple-system,BlinkMacSystemFont,'Segoe UI',sans-serif" font-size="62" font-weight="700" fill="#052e16">S</text>
</svg>
